<svg width="49" height="49" viewBox="0 0 49 49" fill="none" xmlns="http://www.w3.org/2000/svg">
<g clip-path="url(#clip0_4_19)">
<rect width="49" height="49" rx="10" fill="#C2F578"/>
<path d="M41.8449 26.8248C41.3991 30.1508 40.0065 33.2784 37.8329 35.8351C35.6593 38.3917 32.7965 40.2695 29.5857 41.2447C26.3748 42.2199 22.9512 42.2514 19.7229 41.3354C16.4947 40.4193 13.5979 38.5945 11.3777 36.0782C9.1575 33.5619 7.7076 30.4604 7.20076 27.1432C6.69392 23.826 7.15151 20.433 8.519 17.3685C9.8865 14.3041 12.1062 11.6975 14.9137 9.85923C17.7211 8.021 20.9979 7.02871 24.3535 7.00061L24.4077 13.4838C22.2953 13.5015 20.2325 14.1261 18.4652 15.2833C16.6979 16.4405 15.3005 18.0815 14.4396 20.0106C13.5788 21.9397 13.2907 24.0757 13.6098 26.1639C13.9289 28.2522 14.8416 30.2047 16.2392 31.7887C17.6369 33.3727 19.4605 34.5215 21.4928 35.0982C23.525 35.6749 25.6802 35.655 27.7015 35.0411C29.7228 34.4272 31.525 33.2451 32.8933 31.6357C34.2616 30.0262 35.1383 28.0573 35.419 25.9635L41.8449 26.8248Z" fill="black"/>
<rect x="33.6592" y="7.15674" width="4.19624" height="8.90237" rx="2.09812" transform="rotate(43 33.6592 7.15674)" fill="black"/>
<rect x="39.0698" y="12" width="4.2" height="8.9" rx="2.1" transform="rotate(43 39.0698 12)" fill="black"/>
</g>
<defs>
<clipPath id="clip0_4_19">
<rect width="49" height="49" fill="white"/>
</clipPath>
</defs>
</svg>
