<svg width="229" height="69" viewBox="0 0 229 69" fill="none" xmlns="http://www.w3.org/2000/svg">
<rect width="229" height="69" rx="8" fill="#C2F578"/>
<path d="M50.5943 31.7068L42.0003 24.2857C41.2481 23.636 40.0625 24.1634 40.0625 25.1726V29.0814C32.2193 29.1712 26 30.7432 26 38.1761C26 41.1761 27.9327 44.1482 30.069 45.702C30.7356 46.187 31.6857 45.5784 31.4399 44.7923C29.2259 37.7116 32.4901 35.8318 40.0625 35.7229V40.0156C40.0625 41.0264 41.249 41.5514 42.0003 40.9025L50.5943 33.4807C51.1349 33.0138 51.1356 32.1744 50.5943 31.7068Z" fill="#3E3E3E"/>
<path d="M77.6935 26.248V38.008C77.6935 39.64 77.2215 40.912 76.2775 41.824C75.3335 42.72 74.0695 43.168 72.4855 43.168C70.8855 43.168 69.5895 42.704 68.5975 41.776C67.6215 40.848 67.1335 39.552 67.1335 37.888H70.4935C70.5095 38.608 70.6775 39.168 70.9975 39.568C71.3335 39.968 71.8135 40.168 72.4375 40.168C73.0455 40.168 73.5095 39.976 73.8295 39.592C74.1495 39.208 74.3095 38.68 74.3095 38.008V26.248H77.6935ZM87.517 43.216C86.237 43.216 85.085 42.936 84.061 42.376C83.037 41.8 82.229 40.992 81.637 39.952C81.061 38.912 80.773 37.712 80.773 36.352C80.773 34.992 81.069 33.792 81.661 32.752C82.269 31.712 83.093 30.912 84.133 30.352C85.173 29.776 86.333 29.488 87.613 29.488C88.893 29.488 90.053 29.776 91.093 30.352C92.133 30.912 92.949 31.712 93.541 32.752C94.149 33.792 94.453 34.992 94.453 36.352C94.453 37.712 94.141 38.912 93.517 39.952C92.909 40.992 92.077 41.8 91.021 42.376C89.981 42.936 88.813 43.216 87.517 43.216ZM87.517 40.288C88.125 40.288 88.693 40.144 89.221 39.856C89.765 39.552 90.197 39.104 90.517 38.512C90.837 37.92 90.997 37.2 90.997 36.352C90.997 35.088 90.661 34.12 89.989 33.448C89.333 32.76 88.525 32.416 87.565 32.416C86.605 32.416 85.797 32.76 85.141 33.448C84.501 34.12 84.181 35.088 84.181 36.352C84.181 37.616 84.493 38.592 85.117 39.28C85.757 39.952 86.557 40.288 87.517 40.288ZM98.6217 28.12C98.0297 28.12 97.5337 27.936 97.1337 27.568C96.7497 27.184 96.5577 26.712 96.5577 26.152C96.5577 25.592 96.7497 25.128 97.1337 24.76C97.5337 24.376 98.0297 24.184 98.6217 24.184C99.2137 24.184 99.7017 24.376 100.086 24.76C100.486 25.128 100.686 25.592 100.686 26.152C100.686 26.712 100.486 27.184 100.086 27.568C99.7017 27.936 99.2137 28.12 98.6217 28.12ZM100.278 29.704V43H96.9177V29.704H100.278ZM110.965 29.512C112.549 29.512 113.829 30.016 114.805 31.024C115.781 32.016 116.269 33.408 116.269 35.2V43H112.909V35.656C112.909 34.6 112.645 33.792 112.117 33.232C111.589 32.656 110.869 32.368 109.957 32.368C109.029 32.368 108.293 32.656 107.749 33.232C107.221 33.792 106.957 34.6 106.957 35.656V43H103.597V29.704H106.957V31.36C107.405 30.784 107.973 30.336 108.661 30.016C109.365 29.68 110.133 29.512 110.965 29.512ZM139.511 43H136.151L128.543 31.504V43H125.183V26.224H128.543L136.151 37.744V26.224H139.511V43ZM148.736 43.216C147.456 43.216 146.304 42.936 145.28 42.376C144.256 41.8 143.448 40.992 142.856 39.952C142.28 38.912 141.992 37.712 141.992 36.352C141.992 34.992 142.288 33.792 142.88 32.752C143.488 31.712 144.312 30.912 145.352 30.352C146.392 29.776 147.552 29.488 148.832 29.488C150.112 29.488 151.272 29.776 152.312 30.352C153.352 30.912 154.168 31.712 154.76 32.752C155.368 33.792 155.672 34.992 155.672 36.352C155.672 37.712 155.36 38.912 154.736 39.952C154.128 40.992 153.296 41.8 152.24 42.376C151.2 42.936 150.032 43.216 148.736 43.216ZM148.736 40.288C149.344 40.288 149.912 40.144 150.44 39.856C150.984 39.552 151.416 39.104 151.736 38.512C152.056 37.92 152.216 37.2 152.216 36.352C152.216 35.088 151.88 34.12 151.208 33.448C150.552 32.76 149.744 32.416 148.784 32.416C147.824 32.416 147.016 32.76 146.36 33.448C145.72 34.12 145.4 35.088 145.4 36.352C145.4 37.616 145.712 38.592 146.336 39.28C146.976 39.952 147.776 40.288 148.736 40.288ZM176.568 29.704L172.68 43H169.056L166.632 33.712L164.208 43H160.56L156.648 29.704H160.056L162.408 39.832L164.952 29.704H168.504L171 39.808L173.352 29.704H176.568Z" fill="#3E3E3E"/>
</svg>
