<svg width="1440" height="84" viewBox="0 0 1440 84" fill="none" xmlns="http://www.w3.org/2000/svg">
<g filter="url(#filter0_dd_9_221)">
<rect x="125" y="16" width="49" height="49" rx="10" fill="#C2F578"/>
<rect x="158.659" y="23.1567" width="4.19624" height="8.90237" rx="2.09812" transform="rotate(43 158.659 23.1567)" fill="black"/>
<rect x="164.07" y="28" width="4.2" height="8.9" rx="2.1" transform="rotate(43 164.07 28)" fill="black"/>
<path d="M160.28 42.7985C161.124 40.8119 160.198 38.5198 158.211 37.6765C156.224 36.8332 153.932 37.7593 153.089 39.7459C152.395 41.382 152.901 43.2254 154.208 44.2948C153.874 45.007 153.476 45.4957 153.01 45.7435C151.951 46.3127 150.367 45.8097 148.69 45.2731C147.373 44.852 146.007 44.4207 144.713 44.4816L147.461 38.0093C149.116 38.1709 150.75 37.2574 151.433 35.6483C152.277 33.6617 151.351 31.3696 149.364 30.5263C147.377 29.683 145.085 30.6091 144.242 32.5957C143.559 34.2048 144.037 36.015 145.303 37.0935L141.501 46.0514C139.844 45.8943 138.209 46.8078 137.526 48.4169C136.683 50.4035 137.609 52.6956 139.596 53.5389C141.582 54.3822 143.874 53.4561 144.718 51.4695C145.366 49.9413 144.969 48.2289 143.84 47.1396C144.078 46.9651 144.377 46.848 144.765 46.8216C145.65 46.7621 146.779 47.125 147.98 47.5074C149.951 48.1372 152.186 48.8469 154.121 47.8118C155.082 47.2969 155.829 46.4255 156.387 45.1721C158.014 45.2895 159.609 44.3806 160.28 42.7985ZM148.143 33.4029C148.538 33.5708 148.725 34.0317 148.557 34.4273C148.389 34.8228 147.928 35.0091 147.532 34.8412C147.137 34.6733 146.951 34.2123 147.119 33.8168C147.286 33.4212 147.747 33.235 148.143 33.4029ZM140.817 50.6623C140.421 50.4944 140.235 50.0335 140.403 49.6379C140.571 49.2424 141.032 49.0562 141.427 49.224C141.823 49.3919 142.009 49.8529 141.841 50.2485C141.673 50.644 141.212 50.8302 140.817 50.6623ZM156.99 40.5531C157.385 40.721 157.572 41.1819 157.404 41.5775C157.236 41.973 156.775 42.1593 156.379 41.9914C155.984 41.8235 155.798 41.3625 155.966 40.967C156.133 40.5714 156.594 40.3852 156.99 40.5531Z" fill="black"/>
<path d="M206.737 36.7656H202.382C202.303 36.2022 202.14 35.7017 201.895 35.2642C201.65 34.8201 201.335 34.4422 200.95 34.1307C200.566 33.8191 200.122 33.5805 199.618 33.4148C199.121 33.2491 198.58 33.1662 197.997 33.1662C196.943 33.1662 196.025 33.428 195.243 33.9517C194.461 34.4687 193.854 35.2244 193.423 36.2188C192.992 37.2064 192.777 38.4062 192.777 39.8182C192.777 41.2699 192.992 42.4896 193.423 43.4773C193.861 44.465 194.471 45.2107 195.253 45.7145C196.035 46.2183 196.94 46.4702 197.967 46.4702C198.544 46.4702 199.078 46.3939 199.568 46.2415C200.065 46.089 200.506 45.867 200.891 45.5753C201.275 45.277 201.593 44.9157 201.845 44.4915C202.104 44.0672 202.283 43.5833 202.382 43.0398L206.737 43.0597C206.625 43.9943 206.343 44.8958 205.892 45.7642C205.448 46.6259 204.848 47.3982 204.092 48.081C203.343 48.7571 202.448 49.294 201.408 49.6918C200.374 50.0829 199.204 50.2784 197.898 50.2784C196.081 50.2784 194.457 49.8674 193.026 49.0455C191.6 48.2235 190.473 47.0336 189.645 45.4759C188.823 43.9181 188.412 42.0322 188.412 39.8182C188.412 37.5975 188.83 35.7083 189.665 34.1506C190.5 32.5928 191.634 31.4062 193.065 30.5909C194.497 29.7689 196.108 29.358 197.898 29.358C199.078 29.358 200.171 29.5237 201.179 29.8551C202.193 30.1866 203.091 30.6705 203.874 31.3068C204.656 31.9366 205.292 32.7088 205.783 33.6236C206.28 34.5384 206.598 35.5857 206.737 36.7656ZM213.981 29.6364V50H209.745V29.6364H213.981ZM221.729 50.2884C220.755 50.2884 219.886 50.1193 219.124 49.7812C218.362 49.4366 217.758 48.9295 217.314 48.2599C216.877 47.5838 216.658 46.742 216.658 45.7344C216.658 44.8859 216.814 44.1733 217.125 43.5966C217.437 43.0199 217.861 42.5559 218.398 42.2045C218.935 41.8532 219.545 41.5881 220.228 41.4091C220.917 41.2301 221.64 41.1042 222.395 41.0312C223.283 40.9384 223.999 40.8523 224.543 40.7727C225.087 40.6866 225.481 40.5606 225.726 40.3949C225.971 40.2292 226.094 39.9839 226.094 39.6591V39.5994C226.094 38.9697 225.895 38.4825 225.498 38.1378C225.106 37.7931 224.55 37.6207 223.827 37.6207C223.065 37.6207 222.458 37.7898 222.007 38.1278C221.557 38.4593 221.258 38.8769 221.113 39.3807L217.195 39.0625C217.394 38.1345 217.785 37.3324 218.368 36.6562C218.952 35.9735 219.704 35.4498 220.625 35.0852C221.553 34.714 222.627 34.5284 223.847 34.5284C224.695 34.5284 225.507 34.6278 226.283 34.8267C227.065 35.0256 227.758 35.3338 228.361 35.7514C228.971 36.169 229.452 36.706 229.803 37.3622C230.154 38.0118 230.33 38.7907 230.33 39.6989V50H226.313V47.8821H226.194C225.948 48.3594 225.62 48.7803 225.209 49.1449C224.798 49.5028 224.304 49.7846 223.728 49.9901C223.151 50.1889 222.485 50.2884 221.729 50.2884ZM222.942 47.3651C223.565 47.3651 224.115 47.2424 224.593 46.9972C225.07 46.7453 225.444 46.4072 225.716 45.983C225.988 45.5587 226.124 45.0781 226.124 44.5412V42.9205C225.991 43.0066 225.809 43.0862 225.577 43.1591C225.352 43.2254 225.096 43.2884 224.811 43.348C224.526 43.401 224.241 43.4508 223.956 43.4972C223.671 43.5369 223.413 43.5734 223.181 43.6065C222.684 43.6795 222.249 43.7955 221.878 43.9545C221.507 44.1136 221.219 44.3291 221.013 44.6009C220.808 44.866 220.705 45.1974 220.705 45.5952C220.705 46.1719 220.914 46.6127 221.331 46.9176C221.756 47.2159 222.292 47.3651 222.942 47.3651ZM246.324 39.0824L242.446 39.321C242.379 38.9896 242.237 38.6913 242.018 38.4261C241.799 38.1544 241.511 37.9389 241.153 37.7798C240.802 37.6141 240.381 37.5312 239.89 37.5312C239.234 37.5312 238.681 37.6705 238.23 37.9489C237.779 38.2206 237.554 38.5852 237.554 39.0426C237.554 39.4072 237.699 39.7154 237.991 39.9673C238.283 40.2192 238.783 40.4214 239.493 40.5739L242.257 41.1307C243.742 41.4356 244.849 41.9261 245.578 42.6023C246.307 43.2784 246.672 44.1667 246.672 45.267C246.672 46.268 246.377 47.1463 245.787 47.902C245.203 48.6577 244.401 49.2476 243.38 49.6719C242.366 50.0895 241.196 50.2983 239.87 50.2983C237.849 50.2983 236.238 49.8774 235.038 49.0355C233.845 48.187 233.145 47.0336 232.94 45.5753L237.106 45.3565C237.232 45.973 237.537 46.4437 238.021 46.7685C238.505 47.0866 239.125 47.2457 239.88 47.2457C240.623 47.2457 241.219 47.1032 241.67 46.8182C242.127 46.5265 242.359 46.152 242.366 45.6946C242.359 45.3101 242.197 44.9953 241.879 44.75C241.561 44.4981 241.07 44.3059 240.407 44.1733L237.762 43.6463C236.271 43.348 235.161 42.831 234.431 42.0952C233.709 41.3594 233.348 40.4214 233.348 39.2812C233.348 38.3002 233.613 37.455 234.143 36.7457C234.68 36.0365 235.432 35.4896 236.4 35.1051C237.375 34.7206 238.515 34.5284 239.821 34.5284C241.75 34.5284 243.268 34.9361 244.375 35.7514C245.488 36.5668 246.138 37.6771 246.324 39.0824ZM262.046 39.0824L258.168 39.321C258.102 38.9896 257.96 38.6913 257.741 38.4261C257.522 38.1544 257.234 37.9389 256.876 37.7798C256.524 37.6141 256.103 37.5312 255.613 37.5312C254.957 37.5312 254.403 37.6705 253.952 37.9489C253.502 38.2206 253.276 38.5852 253.276 39.0426C253.276 39.4072 253.422 39.7154 253.714 39.9673C254.005 40.2192 254.506 40.4214 255.215 40.5739L257.979 41.1307C259.464 41.4356 260.571 41.9261 261.3 42.6023C262.03 43.2784 262.394 44.1667 262.394 45.267C262.394 46.268 262.099 47.1463 261.509 47.902C260.926 48.6577 260.124 49.2476 259.103 49.6719C258.089 50.0895 256.919 50.2983 255.593 50.2983C253.571 50.2983 251.96 49.8774 250.761 49.0355C249.567 48.187 248.868 47.0336 248.663 45.5753L252.829 45.3565C252.955 45.973 253.26 46.4437 253.744 46.7685C254.228 47.0866 254.847 47.2457 255.603 47.2457C256.345 47.2457 256.942 47.1032 257.393 46.8182C257.85 46.5265 258.082 46.152 258.089 45.6946C258.082 45.3101 257.92 44.9953 257.602 44.75C257.283 44.4981 256.793 44.3059 256.13 44.1733L253.485 43.6463C251.994 43.348 250.883 42.831 250.154 42.0952C249.432 41.3594 249.07 40.4214 249.07 39.2812C249.07 38.3002 249.335 37.455 249.866 36.7457C250.403 36.0365 251.155 35.4896 252.123 35.1051C253.097 34.7206 254.237 34.5284 255.543 34.5284C257.472 34.5284 258.99 34.9361 260.097 35.7514C261.211 36.5668 261.861 37.6771 262.046 39.0824ZM269.446 29.6364V50H265.141V29.6364H269.446ZM280.675 42.9205H284.334L286.173 45.2869L287.983 47.3949L291.393 51.6705H287.376L285.03 48.7869L283.827 47.0767L280.675 42.9205ZM291.702 39.8182C291.702 42.0388 291.281 43.928 290.439 45.4858C289.604 47.0436 288.464 48.2334 287.018 49.0554C285.58 49.8707 283.963 50.2784 282.166 50.2784C280.357 50.2784 278.732 49.8674 277.294 49.0455C275.856 48.2235 274.719 47.0336 273.884 45.4759C273.048 43.9181 272.631 42.0322 272.631 39.8182C272.631 37.5975 273.048 35.7083 273.884 34.1506C274.719 32.5928 275.856 31.4062 277.294 30.5909C278.732 29.7689 280.357 29.358 282.166 29.358C283.963 29.358 285.58 29.7689 287.018 30.5909C288.464 31.4062 289.604 32.5928 290.439 34.1506C291.281 35.7083 291.702 37.5975 291.702 39.8182ZM287.337 39.8182C287.337 38.3797 287.121 37.1667 286.69 36.179C286.266 35.1913 285.666 34.4422 284.891 33.9318C284.115 33.4214 283.207 33.1662 282.166 33.1662C281.125 33.1662 280.217 33.4214 279.442 33.9318C278.666 34.4422 278.063 35.1913 277.632 36.179C277.208 37.1667 276.996 38.3797 276.996 39.8182C276.996 41.2566 277.208 42.4697 277.632 43.4574C278.063 44.4451 278.666 45.1941 279.442 45.7045C280.217 46.215 281.125 46.4702 282.166 46.4702C283.207 46.4702 284.115 46.215 284.891 45.7045C285.666 45.1941 286.266 44.4451 286.69 43.4574C287.121 42.4697 287.337 41.2566 287.337 39.8182Z" fill="black"/>
<path d="M360.774 40.718C360.774 39.494 361.05 38.396 361.602 37.424C362.154 36.44 362.904 35.672 363.852 35.12C364.812 34.568 365.874 34.292 367.038 34.292C368.406 34.292 369.6 34.622 370.62 35.282C371.64 35.942 372.384 36.878 372.852 38.09H370.89C370.542 37.334 370.038 36.752 369.378 36.344C368.73 35.936 367.95 35.732 367.038 35.732C366.162 35.732 365.376 35.936 364.68 36.344C363.984 36.752 363.438 37.334 363.042 38.09C362.646 38.834 362.448 39.71 362.448 40.718C362.448 41.714 362.646 42.59 363.042 43.346C363.438 44.09 363.984 44.666 364.68 45.074C365.376 45.482 366.162 45.686 367.038 45.686C367.95 45.686 368.73 45.488 369.378 45.092C370.038 44.684 370.542 44.102 370.89 43.346H372.852C372.384 44.546 371.64 45.476 370.62 46.136C369.6 46.784 368.406 47.108 367.038 47.108C365.874 47.108 364.812 46.838 363.852 46.298C362.904 45.746 362.154 44.984 361.602 44.012C361.05 43.04 360.774 41.942 360.774 40.718ZM379.592 47.162C378.668 47.162 377.828 46.952 377.072 46.532C376.328 46.112 375.74 45.518 375.308 44.75C374.888 43.97 374.678 43.07 374.678 42.05C374.678 41.042 374.894 40.154 375.326 39.386C375.77 38.606 376.37 38.012 377.126 37.604C377.882 37.184 378.728 36.974 379.664 36.974C380.6 36.974 381.446 37.184 382.202 37.604C382.958 38.012 383.552 38.6 383.984 39.368C384.428 40.136 384.65 41.03 384.65 42.05C384.65 43.07 384.422 43.97 383.966 44.75C383.522 45.518 382.916 46.112 382.148 46.532C381.38 46.952 380.528 47.162 379.592 47.162ZM379.592 45.722C380.18 45.722 380.732 45.584 381.248 45.308C381.764 45.032 382.178 44.618 382.49 44.066C382.814 43.514 382.976 42.842 382.976 42.05C382.976 41.258 382.82 40.586 382.508 40.034C382.196 39.482 381.788 39.074 381.284 38.81C380.78 38.534 380.234 38.396 379.646 38.396C379.046 38.396 378.494 38.534 377.99 38.81C377.498 39.074 377.102 39.482 376.802 40.034C376.502 40.586 376.352 41.258 376.352 42.05C376.352 42.854 376.496 43.532 376.784 44.084C377.084 44.636 377.48 45.05 377.972 45.326C378.464 45.59 379.004 45.722 379.592 45.722ZM395.552 37.136V47H393.914V45.542C393.602 46.046 393.164 46.442 392.6 46.73C392.048 47.006 391.436 47.144 390.764 47.144C389.996 47.144 389.306 46.988 388.694 46.676C388.082 46.352 387.596 45.872 387.236 45.236C386.888 44.6 386.714 43.826 386.714 42.914V37.136H388.334V42.698C388.334 43.67 388.58 44.42 389.072 44.948C389.564 45.464 390.236 45.722 391.088 45.722C391.964 45.722 392.654 45.452 393.158 44.912C393.662 44.372 393.914 43.586 393.914 42.554V37.136H395.552ZM399.956 38.738C400.244 38.174 400.652 37.736 401.18 37.424C401.72 37.112 402.374 36.956 403.142 36.956V38.648H402.71C400.874 38.648 399.956 39.644 399.956 41.636V47H398.318V37.136H399.956V38.738ZM404.42 42.05C404.42 41.03 404.624 40.142 405.032 39.386C405.44 38.618 406.004 38.024 406.724 37.604C407.456 37.184 408.29 36.974 409.226 36.974C410.438 36.974 411.434 37.268 412.214 37.856C413.006 38.444 413.528 39.26 413.78 40.304H412.016C411.848 39.704 411.518 39.23 411.026 38.882C410.546 38.534 409.946 38.36 409.226 38.36C408.29 38.36 407.534 38.684 406.958 39.332C406.382 39.968 406.094 40.874 406.094 42.05C406.094 43.238 406.382 44.156 406.958 44.804C407.534 45.452 408.29 45.776 409.226 45.776C409.946 45.776 410.546 45.608 411.026 45.272C411.506 44.936 411.836 44.456 412.016 43.832H413.78C413.516 44.84 412.988 45.65 412.196 46.262C411.404 46.862 410.414 47.162 409.226 47.162C408.29 47.162 407.456 46.952 406.724 46.532C406.004 46.112 405.44 45.518 405.032 44.75C404.624 43.982 404.42 43.082 404.42 42.05ZM424.966 41.69C424.966 42.002 424.948 42.332 424.912 42.68H417.028C417.088 43.652 417.418 44.414 418.018 44.966C418.63 45.506 419.368 45.776 420.232 45.776C420.94 45.776 421.528 45.614 421.996 45.29C422.476 44.954 422.812 44.51 423.004 43.958H424.768C424.504 44.906 423.976 45.68 423.184 46.28C422.392 46.868 421.408 47.162 420.232 47.162C419.296 47.162 418.456 46.952 417.712 46.532C416.98 46.112 416.404 45.518 415.984 44.75C415.564 43.97 415.354 43.07 415.354 42.05C415.354 41.03 415.558 40.136 415.966 39.368C416.374 38.6 416.944 38.012 417.676 37.604C418.42 37.184 419.272 36.974 420.232 36.974C421.168 36.974 421.996 37.178 422.716 37.586C423.436 37.994 423.988 38.558 424.372 39.278C424.768 39.986 424.966 40.79 424.966 41.69ZM423.274 41.348C423.274 40.724 423.136 40.19 422.86 39.746C422.584 39.29 422.206 38.948 421.726 38.72C421.258 38.48 420.736 38.36 420.16 38.36C419.332 38.36 418.624 38.624 418.036 39.152C417.46 39.68 417.13 40.412 417.046 41.348H423.274ZM430.62 47.162C429.864 47.162 429.186 47.036 428.586 46.784C427.986 46.52 427.512 46.16 427.164 45.704C426.816 45.236 426.624 44.702 426.588 44.102H428.28C428.328 44.594 428.556 44.996 428.964 45.308C429.384 45.62 429.93 45.776 430.602 45.776C431.226 45.776 431.718 45.638 432.078 45.362C432.438 45.086 432.618 44.738 432.618 44.318C432.618 43.886 432.426 43.568 432.042 43.364C431.658 43.148 431.064 42.938 430.26 42.734C429.528 42.542 428.928 42.35 428.46 42.158C428.004 41.954 427.608 41.66 427.272 41.276C426.948 40.88 426.786 40.364 426.786 39.728C426.786 39.224 426.936 38.762 427.236 38.342C427.536 37.922 427.962 37.592 428.514 37.352C429.066 37.1 429.696 36.974 430.404 36.974C431.496 36.974 432.378 37.25 433.05 37.802C433.722 38.354 434.082 39.11 434.13 40.07H432.492C432.456 39.554 432.246 39.14 431.862 38.828C431.49 38.516 430.986 38.36 430.35 38.36C429.762 38.36 429.294 38.486 428.946 38.738C428.598 38.99 428.424 39.32 428.424 39.728C428.424 40.052 428.526 40.322 428.73 40.538C428.946 40.742 429.21 40.91 429.522 41.042C429.846 41.162 430.29 41.3 430.854 41.456C431.562 41.648 432.138 41.84 432.582 42.032C433.026 42.212 433.404 42.488 433.716 42.86C434.04 43.232 434.208 43.718 434.22 44.318C434.22 44.858 434.07 45.344 433.77 45.776C433.47 46.208 433.044 46.55 432.492 46.802C431.952 47.042 431.328 47.162 430.62 47.162Z" fill="#3E3E3E"/>
</g>
<defs>
<filter id="filter0_dd_9_221" x="-4" y="0" width="1448" height="84" filterUnits="userSpaceOnUse" color-interpolation-filters="sRGB">
<feFlood flood-opacity="0" result="BackgroundImageFix"/>
<feColorMatrix in="SourceAlpha" type="matrix" values="0 0 0 0 0 0 0 0 0 0 0 0 0 0 0 0 0 0 127 0" result="hardAlpha"/>
<feOffset dy="1"/>
<feGaussianBlur stdDeviation="2"/>
<feComposite in2="hardAlpha" operator="out"/>
<feColorMatrix type="matrix" values="0 0 0 0 0.0470588 0 0 0 0 0.0470588 0 0 0 0 0.0509804 0 0 0 0.05 0"/>
<feBlend mode="normal" in2="BackgroundImageFix" result="effect1_dropShadow_9_221"/>
<feColorMatrix in="SourceAlpha" type="matrix" values="0 0 0 0 0 0 0 0 0 0 0 0 0 0 0 0 0 0 127 0" result="hardAlpha"/>
<feOffset dy="1"/>
<feGaussianBlur stdDeviation="2"/>
<feComposite in2="hardAlpha" operator="out"/>
<feColorMatrix type="matrix" values="0 0 0 0 0.0470588 0 0 0 0 0.0470588 0 0 0 0 0.0509804 0 0 0 0.1 0"/>
<feBlend mode="normal" in2="effect1_dropShadow_9_221" result="effect2_dropShadow_9_221"/>
<feBlend mode="normal" in="SourceGraphic" in2="effect2_dropShadow_9_221" result="shape"/>
</filter>
</defs>
</svg>
