<svg width="169" height="49" viewBox="0 0 169 49" fill="none" xmlns="http://www.w3.org/2000/svg">
<rect width="49" height="49" rx="10" fill="#C2F578"/>
<rect x="33.6592" y="7.15674" width="4.19624" height="8.90237" rx="2.09812" transform="rotate(43 33.6592 7.15674)" fill="black"/>
<rect x="39.0698" y="12" width="4.2" height="8.9" rx="2.1" transform="rotate(43 39.0698 12)" fill="black"/>
<path d="M35.2804 26.7985C36.1237 24.8119 35.1976 22.5198 33.211 21.6765C31.2244 20.8332 28.9323 21.7593 28.089 23.7459C27.3945 25.382 27.901 27.2254 29.2082 28.2948C28.874 29.007 28.4756 29.4957 28.0097 29.7435C26.9513 30.3127 25.3665 29.8097 23.69 29.2731C22.3729 28.852 21.007 28.4207 19.7134 28.4816L22.4607 22.0093C24.1161 22.1709 25.7504 21.2574 26.4334 19.6483C27.2767 17.6617 26.3506 15.3696 24.364 14.5263C22.3774 13.683 20.0853 14.6091 19.242 16.5957C18.559 18.2048 19.0371 20.015 20.3033 21.0935L16.5009 30.0514C14.8436 29.8943 13.2093 30.8078 12.5263 32.4169C11.683 34.4035 12.6091 36.6956 14.5957 37.5389C16.5824 38.3822 18.8745 37.4561 19.7177 35.4695C20.3664 33.9413 19.9687 32.2289 18.8397 31.1396C19.0783 30.9651 19.3773 30.848 19.7651 30.8216C20.6497 30.7621 21.7794 31.125 22.9803 31.5074C24.9514 32.1372 27.1857 32.8469 29.121 31.8118C30.0822 31.2969 30.8287 30.4255 31.3873 29.1721C33.0136 29.2895 34.6088 28.3806 35.2804 26.7985ZM23.143 17.4029C23.5385 17.5708 23.7247 18.0317 23.5569 18.4273C23.389 18.8228 22.928 19.0091 22.5324 18.8412C22.1369 18.6733 21.9507 18.2123 22.1186 17.8168C22.2865 17.4212 22.7474 17.235 23.143 17.4029ZM15.8168 34.6623C15.4212 34.4944 15.235 34.0335 15.4029 33.6379C15.5708 33.2424 16.0317 33.0562 16.4273 33.224C16.8228 33.3919 17.0091 33.8529 16.8412 34.2485C16.6733 34.644 16.2123 34.8302 15.8168 34.6623ZM31.99 24.5531C32.3855 24.721 32.5717 25.1819 32.4038 25.5775C32.2359 25.973 31.775 26.1593 31.3794 25.9914C30.9839 25.8235 30.7977 25.3625 30.9656 24.967C31.1334 24.5714 31.5944 24.3852 31.99 24.5531Z" fill="black"/>
<path d="M81.7372 20.7656H77.3821C77.3026 20.2022 77.1402 19.7017 76.8949 19.2642C76.6496 18.8201 76.3348 18.4422 75.9503 18.1307C75.5658 17.8191 75.1217 17.5805 74.6179 17.4148C74.1207 17.2491 73.5805 17.1662 72.9972 17.1662C71.9432 17.1662 71.0251 17.428 70.2429 17.9517C69.4607 18.4687 68.8542 19.2244 68.4233 20.2188C67.9924 21.2064 67.777 22.4062 67.777 23.8182C67.777 25.2699 67.9924 26.4896 68.4233 27.4773C68.8608 28.465 69.4706 29.2107 70.2528 29.7145C71.035 30.2183 71.9399 30.4702 72.9673 30.4702C73.544 30.4702 74.0777 30.3939 74.5682 30.2415C75.0653 30.089 75.5062 29.867 75.8906 29.5753C76.2751 29.277 76.5933 28.9157 76.8452 28.4915C77.1037 28.0672 77.2827 27.5833 77.3821 27.0398L81.7372 27.0597C81.6245 27.9943 81.3428 28.8958 80.892 29.7642C80.4479 30.6259 79.848 31.3982 79.0923 32.081C78.3433 32.7571 77.4484 33.294 76.4077 33.6918C75.3736 34.0829 74.2036 34.2784 72.8977 34.2784C71.0814 34.2784 69.4574 33.8674 68.0256 33.0455C66.6004 32.2235 65.4735 31.0336 64.6449 29.4759C63.8229 27.9181 63.4119 26.0322 63.4119 23.8182C63.4119 21.5975 63.8295 19.7083 64.6648 18.1506C65.5 16.5928 66.6335 15.4062 68.0653 14.5909C69.4972 13.7689 71.108 13.358 72.8977 13.358C74.0777 13.358 75.1714 13.5237 76.179 13.8551C77.1932 14.1866 78.0914 14.6705 78.8736 15.3068C79.6558 15.9366 80.2921 16.7088 80.7827 17.6236C81.2798 18.5384 81.598 19.5857 81.7372 20.7656ZM88.9808 13.6364V34H84.745V13.6364H88.9808ZM96.729 34.2884C95.7546 34.2884 94.8862 34.1193 94.1239 33.7812C93.3616 33.4366 92.7584 32.9295 92.3143 32.2599C91.8768 31.5838 91.658 30.742 91.658 29.7344C91.658 28.8859 91.8138 28.1733 92.1254 27.5966C92.4369 27.0199 92.8612 26.5559 93.3981 26.2045C93.935 25.8532 94.5449 25.5881 95.2276 25.4091C95.917 25.2301 96.6396 25.1042 97.3952 25.0312C98.2835 24.9384 98.9994 24.8523 99.543 24.7727C100.087 24.6866 100.481 24.5606 100.726 24.3949C100.971 24.2292 101.094 23.9839 101.094 23.6591V23.5994C101.094 22.9697 100.895 22.4825 100.498 22.1378C100.106 21.7931 99.5496 21.6207 98.8271 21.6207C98.0647 21.6207 97.4582 21.7898 97.0075 22.1278C96.5567 22.4593 96.2584 22.8769 96.1126 23.3807L92.195 23.0625C92.3938 22.1345 92.7849 21.3324 93.3683 20.6562C93.9516 19.9735 94.704 19.4498 95.6254 19.0852C96.5534 18.714 97.6272 18.5284 98.8469 18.5284C99.6954 18.5284 100.507 18.6278 101.283 18.8267C102.065 19.0256 102.758 19.3338 103.361 19.7514C103.971 20.169 104.452 20.706 104.803 21.3622C105.154 22.0118 105.33 22.7907 105.33 23.6989V34H101.313V31.8821H101.194C100.948 32.3594 100.62 32.7803 100.209 33.1449C99.7982 33.5028 99.3043 33.7846 98.7276 33.9901C98.1509 34.1889 97.4847 34.2884 96.729 34.2884ZM97.9421 31.3651C98.5652 31.3651 99.1154 31.2424 99.5927 30.9972C100.07 30.7453 100.444 30.4072 100.716 29.983C100.988 29.5587 101.124 29.0781 101.124 28.5412V26.9205C100.991 27.0066 100.809 27.0862 100.577 27.1591C100.352 27.2254 100.096 27.2884 99.8114 27.348C99.5264 27.401 99.2414 27.4508 98.9563 27.4972C98.6713 27.5369 98.4128 27.5734 98.1808 27.6065C97.6836 27.6795 97.2494 27.7955 96.8782 27.9545C96.507 28.1136 96.2186 28.3291 96.0131 28.6009C95.8076 28.866 95.7049 29.1974 95.7049 29.5952C95.7049 30.1719 95.9137 30.6127 96.3313 30.9176C96.7556 31.2159 97.2925 31.3651 97.9421 31.3651ZM121.324 23.0824L117.446 23.321C117.379 22.9896 117.237 22.6913 117.018 22.4261C116.799 22.1544 116.511 21.9389 116.153 21.7798C115.802 21.6141 115.381 21.5312 114.89 21.5312C114.234 21.5312 113.681 21.6705 113.23 21.9489C112.779 22.2206 112.554 22.5852 112.554 23.0426C112.554 23.4072 112.699 23.7154 112.991 23.9673C113.283 24.2192 113.783 24.4214 114.493 24.5739L117.257 25.1307C118.742 25.4356 119.849 25.9261 120.578 26.6023C121.307 27.2784 121.672 28.1667 121.672 29.267C121.672 30.268 121.377 31.1463 120.787 31.902C120.203 32.6577 119.401 33.2476 118.38 33.6719C117.366 34.0895 116.196 34.2983 114.87 34.2983C112.849 34.2983 111.238 33.8774 110.038 33.0355C108.845 32.187 108.145 31.0336 107.94 29.5753L112.106 29.3565C112.232 29.973 112.537 30.4437 113.021 30.7685C113.505 31.0866 114.125 31.2457 114.88 31.2457C115.623 31.2457 116.219 31.1032 116.67 30.8182C117.127 30.5265 117.359 30.152 117.366 29.6946C117.359 29.3101 117.197 28.9953 116.879 28.75C116.561 28.4981 116.07 28.3059 115.407 28.1733L112.762 27.6463C111.271 27.348 110.161 26.831 109.431 26.0952C108.709 25.3594 108.348 24.4214 108.348 23.2812C108.348 22.3002 108.613 21.455 109.143 20.7457C109.68 20.0365 110.432 19.4896 111.4 19.1051C112.375 18.7206 113.515 18.5284 114.821 18.5284C116.75 18.5284 118.268 18.9361 119.375 19.7514C120.488 20.5668 121.138 21.6771 121.324 23.0824ZM137.046 23.0824L133.168 23.321C133.102 22.9896 132.96 22.6913 132.741 22.4261C132.522 22.1544 132.234 21.9389 131.876 21.7798C131.524 21.6141 131.103 21.5312 130.613 21.5312C129.957 21.5312 129.403 21.6705 128.952 21.9489C128.502 22.2206 128.276 22.5852 128.276 23.0426C128.276 23.4072 128.422 23.7154 128.714 23.9673C129.005 24.2192 129.506 24.4214 130.215 24.5739L132.979 25.1307C134.464 25.4356 135.571 25.9261 136.3 26.6023C137.03 27.2784 137.394 28.1667 137.394 29.267C137.394 30.268 137.099 31.1463 136.509 31.902C135.926 32.6577 135.124 33.2476 134.103 33.6719C133.089 34.0895 131.919 34.2983 130.593 34.2983C128.571 34.2983 126.96 33.8774 125.761 33.0355C124.567 32.187 123.868 31.0336 123.663 29.5753L127.829 29.3565C127.955 29.973 128.26 30.4437 128.744 30.7685C129.228 31.0866 129.847 31.2457 130.603 31.2457C131.345 31.2457 131.942 31.1032 132.393 30.8182C132.85 30.5265 133.082 30.152 133.089 29.6946C133.082 29.3101 132.92 28.9953 132.602 28.75C132.283 28.4981 131.793 28.3059 131.13 28.1733L128.485 27.6463C126.994 27.348 125.883 26.831 125.154 26.0952C124.432 25.3594 124.07 24.4214 124.07 23.2812C124.07 22.3002 124.335 21.455 124.866 20.7457C125.403 20.0365 126.155 19.4896 127.123 19.1051C128.097 18.7206 129.237 18.5284 130.543 18.5284C132.472 18.5284 133.99 18.9361 135.097 19.7514C136.211 20.5668 136.861 21.6771 137.046 23.0824ZM144.446 13.6364V34H140.141V13.6364H144.446ZM155.675 26.9205H159.334L161.173 29.2869L162.983 31.3949L166.393 35.6705H162.376L160.03 32.7869L158.827 31.0767L155.675 26.9205ZM166.702 23.8182C166.702 26.0388 166.281 27.928 165.439 29.4858C164.604 31.0436 163.464 32.2334 162.018 33.0554C160.58 33.8707 158.963 34.2784 157.166 34.2784C155.357 34.2784 153.732 33.8674 152.294 33.0455C150.856 32.2235 149.719 31.0336 148.884 29.4759C148.048 27.9181 147.631 26.0322 147.631 23.8182C147.631 21.5975 148.048 19.7083 148.884 18.1506C149.719 16.5928 150.856 15.4062 152.294 14.5909C153.732 13.7689 155.357 13.358 157.166 13.358C158.963 13.358 160.58 13.7689 162.018 14.5909C163.464 15.4062 164.604 16.5928 165.439 18.1506C166.281 19.7083 166.702 21.5975 166.702 23.8182ZM162.337 23.8182C162.337 22.3797 162.121 21.1667 161.69 20.179C161.266 19.1913 160.666 18.4422 159.891 17.9318C159.115 17.4214 158.207 17.1662 157.166 17.1662C156.125 17.1662 155.217 17.4214 154.442 17.9318C153.666 18.4422 153.063 19.1913 152.632 20.179C152.208 21.1667 151.996 22.3797 151.996 23.8182C151.996 25.2566 152.208 26.4697 152.632 27.4574C153.063 28.4451 153.666 29.1941 154.442 29.7045C155.217 30.215 156.125 30.4702 157.166 30.4702C158.207 30.4702 159.115 30.215 159.891 29.7045C160.666 29.1941 161.266 28.4451 161.69 27.4574C162.121 26.4697 162.337 25.2566 162.337 23.8182Z" fill="black"/>
</svg>
