<svg width="1198" height="67" viewBox="0 0 1198 67" fill="none" xmlns="http://www.w3.org/2000/svg">
<g filter="url(#filter0_dd_9_45)">
<g clip-path="url(#clip0_9_45)">
<path d="M25.8099 3.92578H27.3848C32.8521 4.03825 38.2304 6.11896 42.0932 9.80237C40.6669 11.1801 39.2109 12.5017 37.8144 13.8794C35.6452 12.0237 33.0304 10.5897 30.1779 10.0836C25.9585 9.24002 21.4122 9.9992 17.8763 12.2767C14.0135 14.6667 11.3986 18.7157 10.8341 23.0458C10.2101 27.3197 11.4878 31.8185 14.4295 35.1364C17.2523 38.3699 21.5608 40.3944 26.0179 40.535C30.1779 40.7599 34.5161 39.5509 37.5469 36.7953C39.9241 34.8552 41.0235 31.9029 41.3801 29.0349C36.4475 29.0349 31.515 29.063 26.5825 29.0349V23.2426H47.3526C48.4223 29.4566 46.8771 36.4579 41.8852 40.9005C38.5572 44.0497 33.9516 45.9055 29.2567 46.271C24.7105 46.6928 20.0157 45.8773 15.9746 43.7966C11.1312 41.3504 7.26838 37.2171 5.36669 32.3527C3.58385 27.882 3.55413 22.8209 5.21812 18.322C6.73353 14.2168 9.6455 10.5897 13.3895 8.05908C16.9849 5.55661 21.3528 4.17884 25.8099 3.92578Z" fill="#ACAAB4"/>
<path d="M144.963 5.38678H151.322V45.5388C149.212 45.5388 147.073 45.5669 144.963 45.5107C144.993 32.1548 144.963 18.7708 144.963 5.38678Z" fill="#ACAAB4"/>
<path d="M61.4966 19.305C65.4188 18.6021 69.6679 19.3894 72.9068 21.6107C75.8484 23.5789 77.8987 26.6719 78.5227 30.046C79.325 33.9543 78.3147 38.2282 75.6405 41.3212C72.7582 44.7796 68.0337 46.6354 63.428 46.3542C59.2086 46.1293 55.1081 44.1329 52.6121 40.8713C49.7893 37.2722 49.1058 32.3235 50.651 28.1059C52.1961 23.5789 56.5641 20.1204 61.4966 19.305ZM62.388 24.6474C60.7834 25.041 59.2977 25.9127 58.228 27.1499C55.3458 30.4115 55.5241 35.7257 58.7035 38.7624C60.516 40.5057 63.2497 41.3212 65.7754 40.8432C68.1228 40.4495 70.1731 38.9593 71.3022 36.991C73.2633 33.645 72.6988 29.0337 69.6977 26.4188C67.7662 24.7317 64.9434 24.0288 62.388 24.6474Z" fill="#ACAAB4"/>
<path d="M92.9934 19.305C97.4802 18.4896 102.383 19.6706 105.741 22.651C111.208 27.2904 111.802 35.9788 107.137 41.3212C104.314 44.6953 99.7385 46.551 95.222 46.3542C90.9134 46.2417 86.6644 44.2173 84.109 40.8713C81.2267 37.1879 80.6027 32.1267 82.237 27.8247C83.8712 23.4383 88.15 20.0923 92.9934 19.305ZM93.8848 24.6474C92.2803 25.041 90.7946 25.9127 89.7249 27.1217C86.8723 30.3271 86.9912 35.557 90.0517 38.6219C91.8643 40.4495 94.6871 41.3493 97.302 40.8432C99.6196 40.4214 101.7 38.9593 102.829 36.991C104.76 33.6169 104.196 29.0056 101.165 26.3907C99.2334 24.7036 96.4105 24.0288 93.8848 24.6474Z" fill="#ACAAB4"/>
<path d="M119.706 20.9359C123.123 18.9114 127.67 18.349 131.354 20.0923C132.513 20.5703 133.464 21.3857 134.385 22.2012C134.415 21.442 134.385 20.6547 134.415 19.8674C136.406 19.8955 138.396 19.8674 140.417 19.8955V44.6953C140.387 48.4349 139.377 52.3995 136.524 55.1269C133.404 58.1355 128.621 59.0634 124.312 58.4448C119.706 57.7981 115.695 54.6208 113.912 50.6C115.695 49.7846 117.567 49.1379 119.409 48.3787C120.449 50.6843 122.559 52.6526 125.203 53.1025C127.848 53.5523 130.909 52.9338 132.632 50.8531C134.474 48.7161 134.474 45.7919 134.385 43.1769C133.018 44.4422 131.443 45.5669 129.542 45.9887C125.411 47.0853 120.865 45.7356 117.686 43.0926C114.477 40.4495 112.575 36.3725 112.753 32.3235C112.842 27.7403 115.576 23.3259 119.706 20.9359ZM125.857 24.5349C124.045 24.8161 122.351 25.7721 121.192 27.0936C118.399 30.2428 118.399 35.2759 121.222 38.3688C122.826 40.1965 125.411 41.2087 127.907 40.9556C130.255 40.7307 132.424 39.3248 133.583 37.3847C135.544 34.0949 135.217 29.6242 132.572 26.7562C130.938 24.9848 128.323 24.1132 125.857 24.5349Z" fill="#ACAAB4"/>
<path d="M158.959 22.3698C162.524 19.2207 168.021 18.1522 172.597 19.8111C176.936 21.3576 179.699 25.266 181.095 29.2868C174.648 31.8174 168.229 34.3199 161.781 36.8505C162.673 38.4532 164.04 39.9153 165.882 40.5058C168.467 41.3774 171.557 41.0681 173.726 39.4373C174.588 38.8187 175.272 38.0033 175.925 37.216C177.559 38.2563 179.194 39.2686 180.828 40.3089C178.51 43.5987 174.618 45.9043 170.428 46.2699C165.793 46.8041 160.86 45.1171 157.859 41.6867C152.927 36.2881 153.402 27.2342 158.959 22.3698ZM162.138 27.5716C161.128 28.9494 160.712 30.6364 160.741 32.2954C165.05 30.6083 169.358 28.9213 173.667 27.2061C172.954 25.6315 171.23 24.6755 169.477 24.4224C166.654 23.9444 163.713 25.3784 162.138 27.5716Z" fill="#ACAAB4"/>
</g>
<g clip-path="url(#clip1_9_45)">
<path d="M589.189 16.4658C589.189 18.2653 587.651 19.7144 585.742 19.7144C583.833 19.7144 582.296 18.2653 582.296 16.4658C582.296 14.6662 583.781 13.2172 585.742 13.2172C587.705 13.2671 589.189 14.7166 589.189 16.4658ZM574.98 23.0139V23.8138C574.98 23.8138 573.337 21.8135 569.838 21.8135C564.06 21.8135 559.553 25.9624 559.553 31.7101C559.553 37.4084 564.007 41.6067 569.838 41.6067C573.39 41.6067 574.98 39.5575 574.98 39.5575V40.4068C574.98 40.8068 575.299 41.1059 575.723 41.1059H580.016V22.3118H575.723C575.299 22.3133 574.98 22.6639 574.98 23.0139ZM574.98 35.0591C574.186 36.1591 572.595 37.1088 570.687 37.1088C567.294 37.1088 564.696 35.1095 564.696 31.7101C564.696 28.3112 567.294 26.3119 570.687 26.3119C572.542 26.3119 574.239 27.3116 574.98 28.3611V35.0591ZM583.198 22.3133H588.287V41.1073H583.198V22.3133ZM659.221 21.813C655.722 21.813 654.078 23.8133 654.078 23.8133V13.2671H648.989V41.1073H653.283C653.707 41.1073 654.025 40.7573 654.025 40.4073V39.558C654.025 39.558 655.669 41.6072 659.167 41.6072C664.946 41.6072 669.452 37.4099 669.452 31.7116C669.452 26.0133 664.946 21.813 659.221 21.813ZM658.372 37.0583C656.41 37.0583 654.873 36.1096 654.078 35.0091V28.3112C654.873 27.3116 656.57 26.262 658.372 26.262C661.765 26.262 664.363 28.2613 664.363 31.6602C664.363 35.0591 661.766 37.0583 658.372 37.0583ZM646.338 29.9615V41.1573H641.248V30.5107C641.248 27.4124 640.188 26.1621 637.327 26.1621C635.79 26.1621 634.199 26.9121 633.19 28.0121V41.1079H628.102V22.3138H632.13C632.554 22.3138 632.873 22.6639 632.873 23.0139V23.8138C634.357 22.3638 636.318 21.8135 638.279 21.8135C640.506 21.8135 642.362 22.4142 643.847 23.6136C645.648 25.0132 646.338 26.8122 646.338 29.9615ZM615.748 21.813C612.25 21.813 610.606 23.8133 610.606 23.8133V13.2671H605.517V41.1073H609.811C610.235 41.1073 610.553 40.7573 610.553 40.4073V39.558C610.553 39.558 612.197 41.6072 615.695 41.6072C621.474 41.6072 625.98 37.4099 625.98 31.7116C626.033 26.0128 621.527 21.813 615.748 21.813ZM614.9 37.0583C612.939 37.0583 611.402 36.1096 610.606 35.0091V28.3112C611.402 27.3116 613.098 26.262 614.9 26.262C618.293 26.262 620.891 28.2613 620.891 31.6602C620.891 35.0591 618.293 37.0583 614.9 37.0583ZM601.117 21.813C602.653 21.813 603.449 22.0637 603.449 22.0637V26.5116C603.449 26.5116 599.208 25.162 596.558 28.0116V41.1568H591.468V22.3133H595.762C596.186 22.3133 596.504 22.6634 596.504 23.0134V23.8133C597.459 22.7632 599.527 21.813 601.117 21.813ZM548.262 39.4077C547.997 38.808 547.732 38.1584 547.467 37.6081C547.042 36.7088 546.618 35.8585 546.248 35.0591L546.195 35.0091C542.536 27.5113 538.614 19.9146 534.478 12.4177L534.319 12.1171C533.884 11.3394 533.46 10.5563 533.048 9.76783C532.517 8.86755 531.987 7.91883 531.139 7.01855C529.443 5.01926 527.004 3.91925 524.407 3.91925C521.755 3.91925 519.37 5.01927 517.621 6.91819C516.826 7.81747 516.242 8.76719 515.712 9.66747C515.299 10.4554 514.875 11.2386 514.441 12.0168L514.281 12.3174C510.199 19.8142 506.223 27.4114 502.565 34.9088L502.512 35.0081C502.141 35.809 501.716 36.6584 501.292 37.5572C501.027 38.1074 500.763 38.7071 500.498 39.3567C499.808 41.2057 499.596 42.9554 499.862 44.7554C500.445 48.5043 503.095 51.6521 506.754 53.0527C508.132 53.6029 509.564 53.8526 511.048 53.8526C511.472 53.8526 512.001 53.8027 512.426 53.7522C514.176 53.5525 515.978 53.0032 517.728 52.0535C519.902 50.9036 521.969 49.2548 524.302 46.8556C526.634 49.2548 528.755 50.9036 530.875 52.0535C532.626 53.0032 534.427 53.5525 536.177 53.7522C536.601 53.8032 537.132 53.8526 537.556 53.8526C539.04 53.8526 540.524 53.6029 541.849 53.0527C545.561 51.6521 548.158 48.4544 548.742 44.7554C549.163 43.0063 548.951 41.2577 548.262 39.4077ZM524.353 42.0066C521.49 38.6077 519.634 35.4091 518.999 32.7107C518.734 31.5608 518.68 30.5612 518.84 29.6614C518.945 28.8615 519.264 28.1614 519.688 27.5617C520.696 26.213 522.392 25.3627 524.354 25.3627C526.316 25.3627 528.065 26.1626 529.019 27.5617C529.444 28.1614 529.761 28.862 529.868 29.6614C530.027 30.5617 529.974 31.6107 529.709 32.7107C529.071 35.3591 527.215 38.5583 524.353 42.0066ZM545.505 44.356C545.134 46.9549 543.278 49.2049 540.681 50.2045C539.409 50.7038 538.03 50.8541 536.652 50.7038C535.327 50.5535 534.001 50.1536 532.623 49.4046C530.715 48.404 528.807 46.8556 526.58 44.5557C530.078 40.5077 532.199 36.8082 532.994 33.5102C533.365 31.9603 533.419 30.5611 533.259 29.2609C533.048 28.0116 532.57 26.8617 531.828 25.862C530.184 23.6121 527.426 22.3133 524.353 22.3133C521.279 22.3133 518.522 23.663 516.878 25.862C516.136 26.8617 515.658 28.0116 515.447 29.2609C515.235 30.5611 515.287 32.0102 515.711 33.5102C516.506 36.8082 518.68 40.5571 522.126 44.6056C519.952 46.905 517.99 48.4549 516.082 49.4546C514.703 50.2045 513.378 50.6045 512.053 50.7538C510.622 50.9041 509.243 50.7039 508.024 50.2545C505.427 49.2548 503.571 47.0049 503.2 44.4059C503.042 43.1566 503.147 41.9073 503.678 40.5077C503.836 40.0073 504.102 39.508 504.367 38.9083C504.738 38.1084 505.161 37.2581 505.586 36.4087L505.639 36.3094C509.297 28.8615 513.22 21.2642 517.302 13.8673L517.461 13.5667C517.885 12.8177 518.31 12.0178 518.733 11.2678C519.158 10.4679 519.634 9.71789 520.218 9.06778C521.331 7.8694 522.815 7.21878 524.459 7.21878C526.103 7.21878 527.587 7.8694 528.7 9.06778C529.284 9.71939 529.76 10.4694 530.185 11.2678C530.609 12.0178 531.034 12.8177 531.457 13.5667L531.616 13.8673C535.636 21.295 539.507 28.7937 543.226 36.3593V36.4092C543.651 37.2101 544.022 38.1089 544.446 38.9098C544.711 39.5085 544.976 40.0079 545.135 40.5082C545.558 41.8064 545.717 43.0567 545.505 44.356Z" fill="#ACAAB4"/>
</g>
<g clip-path="url(#clip2_9_45)">
<path d="M411.512 32.5213L420.031 53.8142C417.52 53.4757 415.011 53.0516 412.456 52.6696L407.657 40.9045L402.726 51.6984C400.306 51.3164 397.929 51.1892 395.509 50.8925L404.161 32.2681L396.314 13.179H403.577L407.97 23.8444L412.678 13.179H420.029L411.512 32.5213ZM390.578 13.179H383.987V50.0893C386.14 50.2167 388.38 50.3006 390.578 50.5539V13.179ZM378.294 49.6654C372.287 49.2847 366.279 48.9475 360.137 48.8188V13.1791H366.861V42.8088C370.717 42.8928 374.572 43.1882 378.294 43.3574V49.6654ZM352.962 27.6139V33.9625H343.772V48.3961H337.139V13.179H355.968V19.5275H343.774V27.6141H352.964L352.962 27.6139ZM325.84 19.5275V48.7348C323.597 48.7348 321.312 48.7348 319.114 48.8188V19.5275H312.165V13.179H332.832V19.5275H325.84ZM304.903 34.2998C301.945 34.2998 298.447 34.2998 295.937 34.4285V43.8666C299.882 43.612 303.827 43.3167 307.817 43.1895V49.2847L289.213 50.6826V13.179H307.815V19.5275H295.936V28.0785C298.537 28.0785 302.527 27.9513 304.903 27.9513V34.3011L304.903 34.2998ZM267.646 30.7442V52.9242C265.227 53.1789 263.074 53.4755 260.788 53.8142V13.179H267.2L275.941 36.2491V13.179H282.666V51.1892C280.291 51.5712 277.869 51.6984 275.314 52.0358L267.646 30.7442Z" fill="#ACAAB4"/>
</g>
<g clip-path="url(#clip3_9_45)">
<path fill-rule="evenodd" clip-rule="evenodd" d="M849.457 51.4895C840.098 58.0434 826.484 61.5352 814.742 61.5352C798.293 61.5352 783.545 55.7871 772.314 46.2248C771.463 45.4728 772.2 44.4521 773.278 45.043C785.36 51.7044 800.278 55.6797 815.707 55.6797C826.087 55.6797 837.545 53.6383 848.095 49.3944C849.684 48.8034 850.988 50.4151 849.457 51.4895Z" fill="#ACAAB4"/>
<path fill-rule="evenodd" clip-rule="evenodd" d="M853.371 47.2455C852.18 45.7951 845.429 46.5472 842.423 46.9232C841.516 47.0307 841.345 46.2786 842.196 45.7414C847.585 42.1421 856.377 43.2165 857.398 44.3984C858.419 45.5802 857.114 53.9606 852.066 57.936C851.272 58.5269 850.535 58.2046 850.875 57.3988C852.009 54.7127 854.562 48.7497 853.371 47.2455Z" fill="#ACAAB4"/>
<path fill-rule="evenodd" clip-rule="evenodd" d="M842.593 20.4927V17.0008C842.593 16.4636 842.99 16.1413 843.501 16.1413H859.951C860.461 16.1413 860.915 16.5173 860.915 17.0008V19.9555C860.915 20.4389 860.461 21.0836 859.667 22.158L851.158 33.6542C854.335 33.6005 857.682 34.0303 860.518 35.5344C861.142 35.8568 861.312 36.394 861.369 36.8775V40.5842C861.369 41.1214 860.801 41.7123 860.177 41.39C855.129 38.8651 848.379 38.5965 842.82 41.4437C842.253 41.7123 841.629 41.1751 841.629 40.6379V37.0923C841.629 36.5551 841.629 35.5882 842.253 34.7286L852.123 21.3522H843.558C843.047 21.3522 842.593 20.9762 842.593 20.4927ZM782.637 42.1421H777.646C777.192 42.0884 776.795 41.766 776.738 41.3363V17.0546C776.738 16.5711 777.192 16.195 777.702 16.195H782.354C782.864 16.195 783.204 16.5711 783.261 17.0008V20.1703H783.375C784.566 17.1083 786.891 15.6578 789.954 15.6578C793.074 15.6578 795.06 17.1083 796.421 20.1703C797.612 17.1083 800.391 15.6578 803.341 15.6578C805.44 15.6578 807.709 16.4636 809.127 18.3438C810.715 20.3852 810.375 23.3399 810.375 25.9722V41.3363C810.375 41.8198 809.921 42.1958 809.41 42.1958H804.476C803.965 42.1421 803.568 41.766 803.568 41.3363V28.4433C803.568 27.4226 803.681 24.844 803.455 23.8771C803.057 22.2654 801.98 21.782 800.505 21.782C799.314 21.782 798.009 22.5341 797.499 23.7696C796.988 25.0052 797.045 27.0466 797.045 28.4433V41.3363C797.045 41.8198 796.591 42.1958 796.081 42.1958H791.089C790.578 42.1421 790.181 41.766 790.181 41.3363V28.4433C790.181 25.7573 790.635 21.7282 787.118 21.7282C783.545 21.7282 783.658 25.5961 783.658 28.4433V41.3363C783.601 41.766 783.204 42.1421 782.637 42.1421ZM875.096 15.6578C882.526 15.6578 886.554 21.6745 886.554 29.3566C886.554 36.77 882.129 42.6793 875.096 42.6793C867.835 42.6793 863.864 36.6626 863.864 29.1417C863.808 21.5671 867.835 15.6578 875.096 15.6578ZM875.096 20.6538C871.409 20.6538 871.182 25.435 871.182 28.3896C871.182 31.3442 871.125 37.6833 875.039 37.6833C878.896 37.6833 879.123 32.5798 879.123 29.464C879.123 27.4226 879.009 24.9515 878.385 23.0175C877.818 21.2985 876.684 20.6538 875.096 20.6538ZM896.14 42.1421H891.148C890.638 42.0884 890.241 41.7123 890.241 41.2826V16.9471C890.297 16.5173 890.694 16.1413 891.205 16.1413H895.856C896.31 16.1413 896.65 16.4636 896.764 16.8397V20.5464H896.877C898.295 17.2157 900.224 15.6578 903.684 15.6578C905.896 15.6578 908.108 16.4099 909.526 18.505C910.831 20.4389 910.831 23.7159 910.831 26.0796V41.39C910.774 41.8198 910.377 42.1421 909.867 42.1421H904.875C904.421 42.0884 904.024 41.766 903.968 41.39V28.1747C903.968 25.4887 904.308 21.6208 900.848 21.6208C899.657 21.6208 898.522 22.3729 897.955 23.5548C897.274 25.0589 897.161 26.5094 897.161 28.1747V41.2826C897.104 41.7661 896.65 42.1421 896.14 42.1421ZM829.49 30.5384C829.49 32.3649 829.547 33.9228 828.583 35.5882C827.789 36.9312 826.541 37.737 825.123 37.737C823.194 37.737 822.06 36.3403 822.06 34.2989C822.06 30.2698 825.86 29.5177 829.49 29.5177V30.5384ZM834.539 42.0884C834.198 42.357 833.745 42.4107 833.347 42.1958C831.703 40.9065 831.362 40.2619 830.455 39.0263C827.732 41.6586 825.747 42.4644 822.23 42.4644C818.032 42.4644 814.742 39.9933 814.742 35.1047C814.742 31.2368 816.955 28.6582 820.074 27.3689C822.797 26.2408 826.597 26.0259 829.49 25.7036V25.1126C829.49 23.9845 829.604 22.6415 828.866 21.6745C828.242 20.815 827.108 20.4389 826.087 20.4389C824.158 20.4389 822.457 21.3522 822.06 23.2861C821.946 23.7159 821.663 24.1457 821.209 24.1457L816.387 23.6622C815.99 23.5547 815.536 23.2861 815.65 22.6952C816.784 17.1083 822.06 15.4429 826.824 15.4429C829.263 15.4429 832.44 16.0339 834.369 17.8066C836.808 19.9555 836.581 22.8564 836.581 25.9722V33.3319C836.581 35.5344 837.545 36.5014 838.453 37.737C838.793 38.1668 838.85 38.704 838.453 38.9726C837.375 39.7784 835.56 41.2826 834.539 42.0884ZM763.975 30.5384C763.975 32.3649 764.032 33.9228 763.068 35.5882C762.274 36.9312 761.026 37.737 759.608 37.737C757.679 37.737 756.545 36.3403 756.545 34.2989C756.545 30.2698 760.345 29.5177 763.975 29.5177V30.5384ZM768.967 42.0884C768.627 42.357 768.173 42.4107 767.776 42.1958C766.131 40.9065 765.79 40.2619 764.883 39.0263C762.16 41.6586 760.175 42.4644 756.658 42.4644C752.461 42.4644 749.171 39.9933 749.171 35.1047C749.171 31.2368 751.383 28.6582 754.503 27.3689C757.225 26.2408 761.026 26.0259 763.919 25.7036V25.1126C763.919 23.9845 764.032 22.6415 763.295 21.6745C762.671 20.815 761.536 20.4389 760.515 20.4389C758.587 20.4389 756.885 21.3522 756.488 23.2861C756.374 23.7159 756.091 24.1457 755.637 24.1457L750.816 23.6622C750.419 23.5547 749.965 23.2861 750.078 22.6952C751.213 17.1083 756.488 15.4429 761.253 15.4429C763.692 15.4429 766.868 16.0339 768.797 17.8066C771.236 19.9555 771.009 22.8564 771.009 25.9722V33.3319C771.009 35.5344 771.973 36.5014 772.881 37.737C773.221 38.1668 773.278 38.704 772.881 38.9726C771.803 39.7784 769.988 41.2826 768.967 42.0884Z" fill="#ACAAB4"/>
</g>
<path d="M1095.28 23.3434C1093.6 23.3434 1092.39 23.8689 1091.16 24.4042V36.5178C1092.34 36.6247 1093.01 36.6247 1094.13 36.6247C1098.16 36.6247 1098.71 34.8632 1098.71 32.4039V26.6184C1098.71 24.8021 1098.08 23.3434 1095.28 23.3434ZM1068.5 22.6823C1065.7 22.6823 1065.06 24.1473 1065.06 25.9618V26.9812H1071.93V25.9618C1071.93 24.1473 1071.29 22.6823 1068.5 22.6823ZM1016.62 35.2908C1016.62 36.7262 1017.33 37.4717 1018.89 37.4717C1020.57 37.4717 1021.57 36.9489 1022.8 36.4118V33.5383H1019.12C1017.38 33.5383 1016.62 33.8473 1016.62 35.2908ZM1121.33 23.3434C1118.53 23.3434 1117.56 24.8021 1117.56 26.6184V33.2464C1117.56 35.0671 1118.53 36.5304 1121.33 36.5304C1124.13 36.5304 1125.1 35.0671 1125.1 33.2464V26.6184C1125.1 24.8021 1124.13 23.3434 1121.33 23.3434ZM1002.88 42.7228H994.644V23.7036H990.527V17.1501H994.645V13.214C994.645 7.86684 996.968 4.68799 1003.57 4.68799H1009.07V11.2433H1005.63C1003.06 11.2433 1002.89 12.1595 1002.89 13.8688L1002.88 17.1492H1009.11L1008.38 23.7027H1002.88V42.7228ZM1031.04 42.7722H1024.17L1023.87 41.1158C1020.74 42.7722 1017.94 43.0408 1016.1 43.0408C1011.06 43.0408 1008.38 39.8323 1008.38 35.395C1008.38 30.1601 1011.51 28.2918 1017.1 28.2918H1022.8V27.16C1022.8 24.4877 1022.48 23.7036 1018.17 23.7036H1011.12L1011.81 17.1501H1019.51C1028.97 17.1501 1031.04 19.9984 1031.04 27.213V42.7722ZM1054.39 24.1841C1050.11 23.4853 1048.89 23.3317 1046.83 23.3317C1043.14 23.3317 1042.02 24.1087 1042.02 27.0998V32.7578C1042.02 35.7489 1043.14 36.5295 1046.83 36.5295C1048.89 36.5295 1050.11 36.3732 1054.39 35.6717V42.0644C1050.64 42.8647 1048.21 43.0749 1046.15 43.0749C1037.3 43.0749 1033.78 38.6385 1033.78 32.2296V27.6388C1033.78 21.2245 1037.3 16.78 1046.15 16.78C1048.21 16.78 1050.64 16.9911 1054.39 17.795V24.1841ZM1080.17 32.2296H1065.06V32.7578C1065.06 35.7489 1066.18 36.5295 1069.87 36.5295C1073.19 36.5295 1075.21 36.3732 1079.48 35.6717V42.0644C1075.37 42.8647 1073.22 43.0749 1069.19 43.0749C1060.34 43.0749 1056.82 38.6385 1056.82 32.2296V26.9803C1056.82 21.3727 1059.43 16.78 1068.5 16.78C1077.56 16.78 1080.17 21.3197 1080.17 26.9803V32.2296ZM1106.95 32.3509C1106.95 38.5451 1105.09 43.0632 1093.85 43.0632C1089.79 43.0632 1087.41 42.7228 1082.92 42.0653V6.65692L1091.16 5.34639V17.7321C1092.94 17.1016 1095.24 16.7809 1097.34 16.7809C1105.58 16.7809 1106.95 20.3029 1106.95 25.9626V32.3509H1106.95ZM1133.35 32.4856C1133.35 37.8292 1131.04 43.012 1121.36 43.012C1111.68 43.012 1109.32 37.8292 1109.32 32.4856V27.3262C1109.32 21.9799 1111.68 16.7962 1121.36 16.7962C1131.04 16.7962 1133.35 21.9799 1133.35 27.3262V32.4856ZM1159.73 32.4856C1159.73 37.8292 1157.42 43.012 1147.74 43.012C1138.06 43.012 1135.7 37.8292 1135.7 32.4856V27.3262C1135.7 21.9799 1138.06 16.7962 1147.74 16.7962C1157.42 16.7962 1159.73 21.9799 1159.73 27.3262V32.4856ZM1186.81 42.7228H1177.88L1170.33 30.7017V42.7228H1162.09V6.65602L1170.33 5.3455V28.5639L1177.88 17.1501H1186.81L1178.56 29.6059L1186.81 42.7228ZM1147.71 23.3434C1144.91 23.3434 1143.94 24.8021 1143.94 26.6184V33.2464C1143.94 35.0671 1144.91 36.5304 1147.71 36.5304C1150.51 36.5304 1151.49 35.0671 1151.49 33.2464V26.6184C1151.49 24.8021 1150.51 23.3434 1147.71 23.3434ZM1191.51 38.237C1192.9 38.237 1194 39.3158 1194 40.6631C1194 42.0311 1192.89 43.0982 1191.5 43.0982C1190.11 43.0982 1188.98 42.0311 1188.98 40.6631C1188.98 39.3158 1190.11 38.237 1191.5 38.237H1191.51ZM1191.5 38.6143C1190.38 38.6143 1189.47 39.5314 1189.47 40.6631C1189.47 41.8156 1190.38 42.721 1191.51 42.721C1192.64 42.7318 1193.54 41.8156 1193.54 40.6739C1193.54 39.5323 1192.64 38.6143 1191.51 38.6143H1191.5ZM1191.02 42.0752H1190.57V39.3679C1190.81 39.3364 1191.04 39.305 1191.37 39.305C1191.8 39.305 1192.08 39.3912 1192.26 39.5089C1192.42 39.6284 1192.51 39.8107 1192.51 40.0685C1192.51 40.426 1192.27 40.6407 1191.96 40.7278V40.7485C1192.21 40.7925 1192.38 41.0063 1192.44 41.4042C1192.5 41.8255 1192.57 41.9862 1192.61 42.0743H1192.14C1192.07 41.9862 1192.01 41.7392 1191.95 41.3826C1191.88 41.0386 1191.7 40.9093 1191.34 40.9093H1191.02V42.0752H1191.02ZM1191.02 40.5769H1191.35C1191.72 40.5769 1192.04 40.4467 1192.04 40.1116C1192.04 39.8745 1191.86 39.6382 1191.35 39.6382C1191.2 39.6382 1191.1 39.649 1191.02 39.6589V40.5769Z" fill="#ACAAB4"/>
</g>
<defs>
<filter id="filter0_dd_9_45" x="0" y="0.9198" width="1198" height="65.6154" filterUnits="userSpaceOnUse" color-interpolation-filters="sRGB">
<feFlood flood-opacity="0" result="BackgroundImageFix"/>
<feColorMatrix in="SourceAlpha" type="matrix" values="0 0 0 0 0 0 0 0 0 0 0 0 0 0 0 0 0 0 127 0" result="hardAlpha"/>
<feOffset dy="1"/>
<feGaussianBlur stdDeviation="2"/>
<feComposite in2="hardAlpha" operator="out"/>
<feColorMatrix type="matrix" values="0 0 0 0 0.0470588 0 0 0 0 0.0470588 0 0 0 0 0.0509804 0 0 0 0.05 0"/>
<feBlend mode="normal" in2="BackgroundImageFix" result="effect1_dropShadow_9_45"/>
<feColorMatrix in="SourceAlpha" type="matrix" values="0 0 0 0 0 0 0 0 0 0 0 0 0 0 0 0 0 0 127 0" result="hardAlpha"/>
<feOffset dy="1"/>
<feGaussianBlur stdDeviation="2"/>
<feComposite in2="hardAlpha" operator="out"/>
<feColorMatrix type="matrix" values="0 0 0 0 0.0470588 0 0 0 0 0.0470588 0 0 0 0 0.0509804 0 0 0 0.1 0"/>
<feBlend mode="normal" in2="effect1_dropShadow_9_45" result="effect2_dropShadow_9_45"/>
<feBlend mode="normal" in="SourceGraphic" in2="effect2_dropShadow_9_45" result="shape"/>
</filter>
<clipPath id="clip0_9_45">
<rect width="177.095" height="54.6985" fill="white" transform="translate(4 3.9198)"/>
</clipPath>
<clipPath id="clip1_9_45">
<rect width="169.751" height="49.9333" fill="white" transform="translate(499.724 3.9198)"/>
</clipPath>
<clipPath id="clip2_9_45">
<rect width="159.242" height="40.7149" fill="white" transform="translate(260.788 13.1382)"/>
</clipPath>
<clipPath id="clip3_9_45">
<rect width="161.667" height="46.0923" fill="white" transform="matrix(-1 0 0 -1 910.834 61.5352)"/>
</clipPath>
</defs>
</svg>
